# xmcd
#
# Track frame offsets:
#	150
#	19129
#	39260
#	57502
#	70326
#	86819
#	103887
#	122056
#	141109
#	168075
#	181660
#	202145
#	219812
#	237467
#	256219
#
# Disc length: 3641 seconds
#
# Revision: 2
# Processed by: cddbd v1.5.1PL2 Copyright (c) Steve Scherf et al.
# Submitted via: EasyCDDAExtractor 9.1.0.1
#
DISCID=d40e370f
DTITLE=The Tom Russell Band - Raw Vision
DYEAR=2005
DGENRE=Country
TTITLE0=Waterloo
TTITLE1=U.S. Steel
TTITLE2=Blue Wing
TTITLE3=Home Before Dark
TTITLE4=Veteran's Day
TTITLE5=Purgatory Road
TTITLE6=Heart Of Hearts
TTITLE7=Navajo Rug (with Ian Tyson)
TTITLE8=Gallo Del Cielo (with Ian Tyson)
TTITLE9=Spanish Burgundy
TTITLE10=Hurricane Season
TTITLE11=Haley' Comet
TTITLE12=Oil Field Girls (unreleased demo)
TTITLE13=Hong Kong Boy (with Greg Trooper)(unreleased demo)
TTITLE14=Denver Wind (unreleased track from ''Poor Man's Dream'')
EXTD=
EXTT0=
EXTT1=
EXTT2=
EXTT3=
EXTT4=
EXTT5=
EXTT6=
EXTT7=
EXTT8=
EXTT9=
EXTT10=
EXTT11=
EXTT12=
EXTT13=
EXTT14=
PLAYORDER=
